<?xml version="1.0" encoding="UTF-8"?>
<svg id="_レイヤー_2" xmlns="http://www.w3.org/2000/svg" version="1.1" viewBox="0 0 85.7 75">
  <!-- Generator: Adobe Illustrator 29.5.1, SVG Export Plug-In . SVG Version: 2.1.0 Build 141)  -->
  <defs>
    <style>
      .st0 {
        fill: #005b59;
      }
    </style>
  </defs>
  <g id="_瀧鵫_1">
    <path class="st0" d="M85.7,212.5v-12.8l-20.9-12.2,20.9-12.2v-50.6l-20.9-12.2,20.9-12.2v-50.6l-20.9-12.2,20.9-12.2V-25.3l-20.9-12.2,20.9-12.2v-37.8h-.3v12l-20.6-12h-1.1l-20.6,12v-12h-.5v12l-20.6-12h-1.1L.2-75.5v-12H-.3v12l-20.6-12h-1.1l-20.6,12v-12h-.5v12l-20.6-12h-1.1l-20.6,12v-12h-.5v12l-20.6-12h-1.1l-20.6,12v-12h-.5v12l-20.6-12h-1.1l-20.6,12v-12h-.5v12l-20.6-12h-1.1l-20.6,12v-12h-.5v12l-20.6-12h-1.1l-20.6,12v-12h-.5v12l-20.5-12h-1.1l-20.6,12v-12h-.5v12l-20.6-12h-1.1l-20.6,12v-12h-.5v12l-20.6-12h-1.1l-20.6,12v-12h-.5v12l-20.6-12h-1.1l-20.6,12v-12h-.5v12l-20.6-12h-1.1l-20.6,12v-12h-.5v12l-20.6-12h-1.1l-20.6,12v-12h-.3v37.8l20.9,12.2-20.9,12.2V25.3l20.9,12.2-20.9,12.2v50.6l20.9,12.2-20.9,12.2v50.6l20.9,12.2-20.9,12.2v12.8h.3v-12.4l20.9-12.2v24.4h-.3c0,.1,1.1.1,1.1.1h-.3v-24.5l20.9,12.2v12.4h.5v-12.4l20.9-12.2v24.4h-.3c0,.1,1.1.1,1.1.1h-.3v-24.5l20.9,12.2v12.4h.5v-12.4l20.9-12.2v24.4h-.3c0,.1,1.1.1,1.1.1h-.3v-24.5l20.9,12.2v12.4h.5v-12.4l20.9-12.2v24.4h-.3c0,.1,1.1.1,1.1.1h-.3v-24.5l20.9,12.2v12.4h.5v-12.4l20.9-12.2v24.4h-.3c0,.1,1.1.1,1.1.1h-.3v-24.5l20.9,12.2v12.4h.5v-12.4l20.9-12.2v24.4h-.3c0,.1,1.1.1,1.1.1h-.3v-24.5l20.9,12.2v12.4h.5v-12.4l20.9-12.2v24.4h-.3c0,.1,1.1.1,1.1.1h-.3v-24.5l20.9,12.2v12.4h.5v-12.4l20.9-12.2v24.4h-.3c0,.1,1.1.1,1.1.1h-.3v-24.5l20.9,12.2v12.4h.5v-12.4l20.9-12.2v24.4h-.3c0,.1,1.1.1,1.1.1h-.3v-24.5l20.9,12.2v12.4h.5v-12.4l20.9-12.2v24.4h-.3c0,.1,1.1.1,1.1.1h-.3v-24.5l20.9,12.2v12.4h.5v-12.4l20.9-12.2v24.4h-.3c0,.1,1.1.1,1.1.1h-.3v-24.5l20.9,12.2v12.4h.5v-12.4l20.9-12.2v24.4h-.3c0,.1,1.1.1,1.1.1h-.3v-24.5L-.4,200.1v12.4H.2v-12.4l20.9-12.2v24.4h-.3c0,.1,1.1.1,1.1.1h-.3v-24.5l20.9,12.2v12.4h.5v-12.4l20.9-12.2v24.4h-.3c0,.1,1.1.1,1.1.1h-.3v-24.5l20.9,12.2v12.4h.4ZM43.4,150l20.9-12.2,20.9,12.2-20.9,12.2-20.9-12.2ZM42.8,124.7l-20.9-12.2,20.9-12.2,20.9,12.2-20.9,12.2ZM64,113v24.4l-20.9,12.2v-24.4l20.9-12.2ZM43.1,99.9v-24.4l20.9,12.2v24.4l-20.9-12.2ZM43.1,74.5v-24.4l20.9-12.2v24.4l-20.9,12.2ZM42.6,149.5l-20.9-12.2v-24.4l20.9,12.2v24.4ZM21.7,112v-24.4l20.9-12.2v24.4l-20.9,12.2ZM21.4,87.2L.5,75l20.9-12.2,20.9,12.2-20.9,12.2ZM21.7,62.4v-24.4l20.9,12.2v24.4l-20.9-12.2ZM.3,74.5v-24.4l20.9-12.2v24.4L.3,74.5ZM21.2,87.6v24.4L.3,99.8v-24.4l20.9,12.2ZM21.2,137.4L.3,149.5v-24.4l20.9-12.2v24.4ZM0,124.7l-20.9-12.2L0,100.3l20.9,12.2L0,124.7ZM-.3,149.5l-20.9-12.2v-24.4L-.3,125.1v24.4ZM-21.2,112v-24.4L-.3,75.5v24.4l-20.9,12.2ZM-21.4,87.2l-20.9-12.2,20.9-12.2L-.5,75l-20.9,12.2h0ZM-21.2,62.4v-24.4L-.3,50.2v24.4l-20.9-12.2ZM-42.6,74.5v-24.4l20.9-12.2v24.4l-20.9,12.2ZM-21.7,87.6v24.4l-20.9-12.2v-24.4l20.9,12.2h0ZM-21.7,137.4l-20.9,12.2v-24.4l20.9-12.2v24.4h0ZM-42.9,124.7l-20.9-12.2,20.9-12.2,20.9,12.2-20.9,12.2ZM-43.1,149.5l-20.9-12.2v-24.4l20.9,12.2v24.4h0ZM-64,112v-24.4l20.9-12.2v24.4l-20.9,12.2h0ZM-64.3,87.2l-20.9-12.2,20.9-12.2,20.9,12.2-20.9,12.2ZM-64,62.4v-24.4l20.9,12.2v24.4l-20.9-12.2h0ZM-85.5,74.5v-24.4l20.9-12.2v24.4l-20.9,12.2h0ZM-64.6,87.6v24.4l-20.9-12.2v-24.4l20.9,12.2h0ZM-64.6,137.4l-20.9,12.2v-24.4l20.9-12.2v24.4h0ZM-85.7,124.7l-20.9-12.2,20.9-12.2,20.9,12.2-20.9,12.2ZM-86,149.5l-20.9-12.2v-24.4l20.9,12.2v24.4ZM-106.9,112v-24.4l20.9-12.2v24.4l-20.9,12.2h0ZM-107.2,87.2l-20.9-12.2,20.9-12.2,20.9,12.2-20.9,12.2ZM-106.9,62.4v-24.4l20.9,12.2v24.4l-20.9-12.2h0ZM-128.3,74.5v-24.4l20.9-12.2v24.4l-20.9,12.2h0ZM-107.4,87.6v24.4l-20.9-12.2v-24.4l20.9,12.2ZM-107.4,137.4l-20.9,12.2v-24.4l20.9-12.2v24.4ZM-128.6,124.7l-20.9-12.2,20.9-12.2,20.9,12.2-20.9,12.2ZM-128.8,149.5l-20.9-12.2v-24.4l20.9,12.2v24.4ZM-149.7,112v-24.4l20.9-12.2v24.4l-20.9,12.2ZM-150,87.2l-20.9-12.2,20.9-12.2,20.9,12.2-20.9,12.2ZM-149.7,62.4v-24.4l20.9,12.2v24.4l-20.9-12.2ZM-171.2,74.5v-24.4l20.9-12.2v24.4l-20.9,12.2ZM-150.3,87.6v24.4l-20.9-12.2v-24.4l20.9,12.2h0ZM-150.3,137.4l-20.9,12.2v-24.4l20.9-12.2v24.4h0ZM-171.4,124.7l-20.9-12.2,20.9-12.2,20.9,12.2-20.9,12.2ZM-171.7,149.5l-20.9-12.2v-24.4l20.9,12.2v24.4h0ZM-192.6,112v-24.4l20.9-12.2v24.4l-20.9,12.2ZM-192.9,87.2l-20.9-12.2,20.9-12.2,20.9,12.2-20.9,12.2ZM-192.6,62.4v-24.4l20.9,12.2v24.4l-20.9-12.2ZM-214,74.5v-24.4l20.9-12.2v24.4l-20.9,12.2h0ZM-193.1,87.6v24.4l-20.9-12.2v-24.4l20.9,12.2h0ZM-193.1,137.4l-20.9,12.2v-24.4l20.9-12.2v24.4h0ZM-214.3,124.7l-20.9-12.2,20.9-12.2,20.9,12.2-20.9,12.2ZM-214.6,149.5l-20.9-12.2v-24.4l20.9,12.2v24.4h0ZM-235.5,112v-24.4l20.9-12.2v24.4l-20.9,12.2h0ZM-235.7,87.2l-20.9-12.2,20.9-12.2,20.9,12.2-20.9,12.2ZM-235.5,62.4v-24.4l20.9,12.2v24.4l-20.9-12.2h0ZM-256.9,74.5v-24.4l20.9-12.2v24.4l-20.9,12.2h0ZM-236,87.6v24.4l-20.9-12.2v-24.4l20.9,12.2ZM-236,137.4l-20.9,12.2v-24.4l20.9-12.2v24.4ZM-257.2,124.7l-20.9-12.2,20.9-12.2,20.9,12.2-20.9,12.2ZM-257.4,149.5l-20.9-12.2v-24.4l20.9,12.2v24.4ZM-278.3,112v-24.4l20.9-12.2v24.4l-20.9,12.2ZM-278.6,87.2l-20.9-12.2,20.9-12.2,20.9,12.2-20.9,12.2h0ZM-278.3,62.4v-24.4l20.9,12.2v24.4l-20.9-12.2ZM-299.7,74.5v-24.4l20.9-12.2v24.4l-20.9,12.2ZM-278.8,87.6v24.4l-20.9-12.2v-24.4l20.9,12.2ZM-278.8,137.4l-20.9,12.2v-24.4l20.9-12.2v24.4ZM-300,124.7l-20.9-12.2,20.9-12.2,20.9,12.2-20.9,12.2ZM-300.3,149.5l-20.9-12.2v-24.4l20.9,12.2v24.4ZM-321.2,112v-24.4l20.9-12.2v24.4l-20.9,12.2ZM-321.4,87.2l-20.9-12.2,20.9-12.2,20.9,12.2-20.9,12.2ZM-321.2,62.4v-24.4l20.9,12.2v24.4l-20.9-12.2ZM-342.6,74.5v-24.4l20.9-12.2v24.4l-20.9,12.2ZM-321.7,87.6v24.4l-20.9-12.2v-24.4l20.9,12.2ZM-321.7,137.4l-20.9,12.2v-24.4l20.9-12.2v24.4ZM-342.9,124.7l-20.9-12.2,20.9-12.2,20.9,12.2-20.9,12.2ZM-343.1,149.5l-20.9-12.2v-24.4l20.9,12.2v24.4ZM-364,112v-24.4l20.9-12.2v24.4l-20.9,12.2ZM-364.3,87.2l-20.9-12.2,20.9-12.2,20.9,12.2-20.9,12.2ZM-364,62.4v-24.4l20.9,12.2v24.4l-20.9-12.2ZM-385.5,74.5v-24.4l20.9-12.2v24.4l-20.9,12.2ZM-364.6,87.6v24.4l-20.9-12.2v-24.4l20.9,12.2ZM-364.6,137.4l-20.9,12.2v-24.4l20.9-12.2v24.4ZM-385.7,124.7l-20.9-12.2,20.9-12.2,20.9,12.2-20.9,12.2ZM-386,149.5l-20.9-12.2v-24.4l20.9,12.2v24.4ZM-406.9,112v-24.4l20.9-12.2v24.4l-20.9,12.2ZM-407.2,87.2l-20.9-12.2,20.9-12.2,20.9,12.2s-20.9,12.2-20.9,12.2ZM-406.9,62.4v-24.4l20.9,12.2v24.4l-20.9-12.2ZM-428.3,74.5v-24.4l20.9-12.2v24.4l-20.9,12.2ZM-407.4,87.6v24.4l-20.9-12.2v-24.4l20.9,12.2ZM-407.4,137.4l-20.9,12.2v-24.4l20.9-12.2v24.4ZM-428.6,124.7l-20.9-12.2,20.9-12.2,20.9,12.2-20.9,12.2ZM-428.8,149.5l-20.9-12.2v-24.4l20.9,12.2v24.4ZM-449.7,112v-24.4l20.9-12.2v24.4l-20.9,12.2ZM-450,87.2l-20.9-12.2,20.9-12.2,20.9,12.2-20.9,12.2ZM-449.7,62.4v-24.4l20.9,12.2v24.4l-20.9-12.2ZM-471.2,74.5v-24.4l20.9-12.2v24.4s-20.9,12.2-20.9,12.2ZM-450.3,87.6v24.4l-20.9-12.2v-24.4l20.9,12.2ZM-450.3,137.4l-20.9,12.2v-24.4l20.9-12.2v24.4ZM-471.4,124.7l-20.9-12.2,20.9-12.2,20.9,12.2-20.9,12.2ZM-471.7,149.5l-20.9-12.2v-24.4l20.9,12.2v24.4ZM-492.6,112v-24.4l20.9-12.2v24.4l-20.9,12.2ZM-492.9,87.2l-20.9-12.2,20.9-12.2,20.9,12.2s-20.9,12.2-20.9,12.2ZM-492.6,62.4v-24.4l20.9,12.2v24.4l-20.9-12.2ZM-492.9,12.2l-20.9-12.2,20.9-12.2,20.9,12.2s-20.9,12.2-20.9,12.2ZM-492.6-37l20.9,12.2V-.5l-20.9-12.2v-24.4ZM-471.7.5v24.4l-20.9,12.2V12.7L-471.7.5ZM-471.4,25.3l20.9,12.2-20.9,12.2-20.9-12.2,20.9-12.2ZM-471.2,24.8V.5l20.9,12.2v24.4s-20.9-12.2-20.9-12.2ZM-471.2-24.8l20.9-12.2V-12.7L-471.2-.5s0-24.4,0-24.4ZM-450-12.2l20.9,12.2-20.9,12.2-20.9-12.2,20.9-12.2ZM-449.7-37l20.9,12.2V-.5l-20.9-12.2v-24.4ZM-428.8.5v24.4l-20.9,12.2V12.7L-428.8.5ZM-428.6,25.3l20.9,12.2-20.9,12.2-20.9-12.2,20.9-12.2ZM-428.3,24.8V.5l20.9,12.2v24.4l-20.9-12.2ZM-428.3-24.8l20.9-12.2V-12.7L-428.3-.5v-24.4ZM-407.2-12.2l20.9,12.2-20.9,12.2-20.9-12.2s20.9-12.2,20.9-12.2ZM-406.9-37l20.9,12.2V-.5l-20.9-12.2v-24.4ZM-386,.5v24.4l-20.9,12.2V12.7L-386,.5ZM-385.7,25.3l20.9,12.2-20.9,12.2-20.9-12.2,20.9-12.2ZM-385.5,24.8V.5l20.9,12.2v24.4l-20.9-12.2ZM-385.5-24.8l20.9-12.2V-12.7L-385.5-.5v-24.4ZM-364.3-12.2l20.9,12.2-20.9,12.2-20.9-12.2,20.9-12.2ZM-364-37l20.9,12.2V-.5l-20.9-12.2v-24.4ZM-343.1.5v24.4l-20.9,12.2V12.7L-343.1.5ZM-342.9,25.3l20.9,12.2-20.9,12.2-20.9-12.2,20.9-12.2ZM-342.6,24.8V.5l20.9,12.2v24.4l-20.9-12.2ZM-342.6-24.8l20.9-12.2V-12.7L-342.6-.5v-24.4ZM-321.4-12.2l20.9,12.2-20.9,12.2-20.9-12.2,20.9-12.2ZM-321.2-37l20.9,12.2V-.5l-20.9-12.2v-24.4ZM-300.3.5v24.4l-20.9,12.2V12.7L-300.3.5ZM-300,25.3l20.9,12.2-20.9,12.2-20.9-12.2,20.9-12.2ZM-299.7,24.8V.5l20.9,12.2v24.4l-20.9-12.2ZM-299.7-24.8l20.9-12.2V-12.7L-299.7-.5v-24.4ZM-278.6-12.2l20.9,12.2-20.9,12.2-20.9-12.2,20.9-12.2h0ZM-278.3-37l20.9,12.2V-.5l-20.9-12.2v-24.4ZM-257.4.5v24.4l-20.9,12.2V12.7L-257.4.5ZM-257.2,25.3l20.9,12.2-20.9,12.2-20.9-12.2,20.9-12.2ZM-256.9,24.8V.5l20.9,12.2v24.4l-20.9-12.2h0ZM-256.9-24.8l20.9-12.2V-12.7L-256.9-.5v-24.4h0ZM-235.7-12.2L-214.8,0l-20.9,12.2-20.9-12.2,20.9-12.2ZM-235.5-37l20.9,12.2V-.5l-20.9-12.2v-24.4h0ZM-214.6.5v24.4l-20.9,12.2V12.7L-214.6.5h0ZM-214.3,25.3l20.9,12.2-20.9,12.2-20.9-12.2,20.9-12.2ZM-214,24.8V.5l20.9,12.2v24.4l-20.9-12.2h0ZM-214-24.8l20.9-12.2V-12.7L-214-.5v-24.4h0ZM-192.9-12.2L-172,0l-20.9,12.2L-213.8,0l20.9-12.2ZM-192.6-37l20.9,12.2V-.5l-20.9-12.2v-24.4ZM-171.7.5v24.4l-20.9,12.2V12.7L-171.7.5h0ZM-171.4,25.3l20.9,12.2-20.9,12.2-20.9-12.2,20.9-12.2ZM-171.2,24.8V.5l20.9,12.2v24.4l-20.9-12.2ZM-171.2-24.8l20.9-12.2V-12.7L-171.2-.5v-24.4ZM-150-12.2L-129.1,0l-20.9,12.2L-170.9,0l20.9-12.2ZM-149.7-37l20.9,12.2V-.5l-20.9-12.2v-24.4ZM-128.8.5v24.4l-20.9,12.2V12.7L-128.8.5ZM-128.6,25.3l20.9,12.2-20.9,12.2-20.9-12.2,20.9-12.2ZM-128.3,24.8V.5l20.9,12.2v24.4l-20.9-12.2h0ZM-128.3-24.8l20.9-12.2V-12.7L-128.3-.5v-24.4h0ZM-107.2-12.2L-86.3,0l-20.9,12.2L-128.1,0l20.9-12.2ZM-106.9-37l20.9,12.2V-.5l-20.9-12.2v-24.4h0ZM-86,.5v24.4l-20.9,12.2V12.7L-86,.5ZM-85.7,25.3l20.9,12.2-20.9,12.2-20.9-12.2,20.9-12.2ZM-85.5,24.8V.5l20.9,12.2v24.4l-20.9-12.2h0ZM-85.5-24.8l20.9-12.2V-12.7L-85.5-.5v-24.4h0ZM-64.3-12.2L-43.4,0l-20.9,12.2L-85.2,0l20.9-12.2ZM-64-37l20.9,12.2V-.5l-20.9-12.2v-24.4h0ZM-43.1.5v24.4l-20.9,12.2V12.7L-43.1.5h0ZM-42.9,25.3l20.9,12.2-20.9,12.2-20.9-12.2,20.9-12.2ZM-42.6,24.8V.5l20.9,12.2v24.4l-20.9-12.2ZM-42.6-24.8l20.9-12.2V-12.7L-42.6-.5v-24.4ZM-21.4-12.2L-.5,0l-20.9,12.2L-42.3,0l20.9-12.2h0ZM-21.2-37L-.3-24.8V-.5l-20.9-12.2v-24.4ZM-.3.5v24.4l-20.9,12.2V12.7L-.3.5ZM0,25.3l20.9,12.2L0,49.7l-20.9-12.2L0,25.3ZM.3,24.8V.5l20.9,12.2v24.4L.3,24.8ZM.3-24.8l20.9-12.2V-12.7L.3-.5v-24.4ZM21.4-12.2L42.3,0l-20.9,12.2L.5,0l20.9-12.2ZM21.7-37l20.9,12.2V-.5l-20.9-12.2v-24.4ZM42.6.5v24.4l-20.9,12.2V12.7L42.6.5ZM42.8,25.3l20.9,12.2-20.9,12.2-20.9-12.2,20.9-12.2ZM43.1,24.8V.5l20.9,12.2v24.4l-20.9-12.2ZM43.1-24.8l20.9-12.2V-12.7L43.1-.5v-24.4ZM64.3-12.2L85.2,0l-20.9,12.2L43.4,0l20.9-12.2ZM64.3,62.8l20.9,12.2-20.9,12.2-20.9-12.2,20.9-12.2ZM64,187l-20.9-12.2v-24.4l20.9,12.2v24.4ZM22,187.5l20.9-12.2,20.9,12.2-20.9,12.2-20.9-12.2ZM21.7,162.6l20.9-12.2v24.4l-20.9,12.2v-24.4ZM.5,150l20.9-12.2,20.9,12.2-20.9,12.2L.5,150ZM21.2,187L.3,174.8v-24.4l20.9,12.2v24.4ZM-20.9,187.5L0,175.3l20.9,12.2L0,199.7l-20.9-12.2h0ZM-21.2,162.6L-.3,150.5v24.4l-20.9,12.2v-24.4ZM-42.3,150l20.9-12.2L-.5,150l-20.9,12.2-20.9-12.2h0ZM-21.7,187l-20.9-12.2v-24.4l20.9,12.2v24.4h0ZM-63.8,187.5l20.9-12.2,20.9,12.2-20.9,12.2-20.9-12.2ZM-64,162.6l20.9-12.2v24.4l-20.9,12.2v-24.4h0ZM-85.2,150l20.9-12.2,20.9,12.2-20.9,12.2-20.9-12.2ZM-64.6,187l-20.9-12.2v-24.4l20.9,12.2v24.4h0ZM-106.6,187.5l20.9-12.2,20.9,12.2-20.9,12.2-20.9-12.2ZM-106.9,162.6l20.9-12.2v24.4l-20.9,12.2v-24.4h0ZM-128,150l20.9-12.2,20.9,12.2-20.9,12.2-20.9-12.2ZM-107.4,187l-20.9-12.2v-24.4l20.9,12.2v24.4ZM-149.5,187.5l20.9-12.2,20.9,12.2-20.9,12.2-20.9-12.2ZM-149.7,162.6l20.9-12.2v24.4l-20.9,12.2v-24.4ZM-170.9,150l20.9-12.2,20.9,12.2-20.9,12.2-20.9-12.2ZM-150.3,187l-20.9-12.2v-24.4l20.9,12.2v24.4h0ZM-192.3,187.5l20.9-12.2,20.9,12.2-20.9,12.2-20.9-12.2ZM-192.6,162.6l20.9-12.2v24.4l-20.9,12.2v-24.4ZM-213.8,150l20.9-12.2,20.9,12.2-20.9,12.2-20.9-12.2ZM-193.1,187l-20.9-12.2v-24.4l20.9,12.2v24.4h0ZM-235.2,187.5l20.9-12.2,20.9,12.2-20.9,12.2-20.9-12.2ZM-235.5,162.6l20.9-12.2v24.4l-20.9,12.2v-24.4h0ZM-256.6,150l20.9-12.2,20.9,12.2-20.9,12.2-20.9-12.2ZM-236,187l-20.9-12.2v-24.4l20.9,12.2v24.4ZM-278,187.5l20.9-12.2,20.9,12.2-20.9,12.2-20.9-12.2ZM-278.3,162.6l20.9-12.2v24.4l-20.9,12.2v-24.4ZM-299.5,150l20.9-12.2,20.9,12.2-20.9,12.2-20.9-12.2ZM-278.8,187l-20.9-12.2v-24.4l20.9,12.2v24.4ZM-320.9,187.5l20.9-12.2,20.9,12.2-20.9,12.2-20.9-12.2ZM-321.2,162.6l20.9-12.2v24.4l-20.9,12.2v-24.4ZM-342.3,150l20.9-12.2,20.9,12.2-20.9,12.2-20.9-12.2ZM-321.7,187l-20.9-12.2v-24.4l20.9,12.2v24.4ZM-363.8,187.5l20.9-12.2,20.9,12.2-20.9,12.2-20.9-12.2ZM-364,162.6l20.9-12.2v24.4l-20.9,12.2v-24.4ZM-385.2,150l20.9-12.2,20.9,12.2-20.9,12.2-20.9-12.2ZM-364.6,187l-20.9-12.2v-24.4l20.9,12.2v24.4ZM-406.6,187.5l20.9-12.2,20.9,12.2-20.9,12.2-20.9-12.2ZM-406.9,162.6l20.9-12.2v24.4l-20.9,12.2v-24.4ZM-428,150l20.9-12.2,20.9,12.2-20.9,12.2-20.9-12.2ZM-407.4,187l-20.9-12.2v-24.4l20.9,12.2v24.4ZM-449.5,187.5l20.9-12.2,20.9,12.2-20.9,12.2-20.9-12.2ZM-449.7,162.6l20.9-12.2v24.4l-20.9,12.2v-24.4ZM-470.9,150l20.9-12.2,20.9,12.2-20.9,12.2-20.9-12.2ZM-450.3,187l-20.9-12.2v-24.4l20.9,12.2v24.4ZM-492.3,187.5l20.9-12.2,20.9,12.2-20.9,12.2s-20.9-12.2-20.9-12.2ZM-492.6,162.6l20.9-12.2v24.4l-20.9,12.2v-24.4ZM-513.8,150l20.9-12.2,20.9,12.2-20.9,12.2-20.9-12.2ZM-514,150.5l20.9,12.2v24.4l-20.9-12.2v-24.4ZM-493.1,113v24.4l-20.9,12.2v-24.4l20.9-12.2h0ZM-514,75.5l20.9,12.2v24.4l-20.9-12.2v-24.4ZM-493.1,38v24.4l-20.9,12.2v-24.4l20.9-12.2h0ZM-514,.5l20.9,12.2v24.4l-20.9-12.2V.5ZM-493.1-37V-12.7l-20.9,12.2v-24.4l20.9-12.2h0ZM-514-74.5l20.9,12.2v24.4l-20.9-12.2v-24.4ZM-472-75l-20.9,12.2-20.9-12.2,20.9-12.2,20.9,12.2h0ZM-471.7-50.2l-20.9,12.2v-24.4l20.9-12.2v24.4ZM-450.5-37.5l-20.9,12.2-20.9-12.2,20.9-12.2,20.9,12.2ZM-471.2-74.5l20.9,12.2v24.4l-20.9-12.2s0-24.4,0-24.4ZM-429.1-75l-20.9,12.2-20.9-12.2,20.9-12.2,20.9,12.2h0ZM-428.8-50.2l-20.9,12.2v-24.4l20.9-12.2v24.4ZM-407.7-37.5l-20.9,12.2-20.9-12.2,20.9-12.2,20.9,12.2ZM-428.3-74.5l20.9,12.2v24.4l-20.9-12.2v-24.4ZM-386.3-75l-20.9,12.2-20.9-12.2,20.9-12.2,20.9,12.2ZM-386-50.2l-20.9,12.2v-24.4l20.9-12.2v24.4ZM-364.8-37.5l-20.9,12.2-20.9-12.2,20.9-12.2,20.9,12.2ZM-385.5-74.5l20.9,12.2v24.4l-20.9-12.2v-24.4ZM-343.4-75l-20.9,12.2-20.9-12.2,20.9-12.2,20.9,12.2ZM-343.1-50.2l-20.9,12.2v-24.4l20.9-12.2v24.4ZM-322-37.5l-20.9,12.2-20.9-12.2,20.9-12.2,20.9,12.2ZM-342.6-74.5l20.9,12.2v24.4l-20.9-12.2v-24.4ZM-300.5-75l-20.9,12.2-20.9-12.2,20.9-12.2,20.9,12.2h0ZM-300.3-50.2l-20.9,12.2v-24.4l20.9-12.2v24.4ZM-279.1-37.5l-20.9,12.2-20.9-12.2,20.9-12.2,20.9,12.2ZM-299.7-74.5l20.9,12.2v24.4l-20.9-12.2v-24.4ZM-257.7-75l-20.9,12.2-20.9-12.2,20.9-12.2,20.9,12.2h0ZM-257.4-50.2l-20.9,12.2v-24.4l20.9-12.2v24.4ZM-236.3-37.5l-20.9,12.2-20.9-12.2,20.9-12.2,20.9,12.2ZM-256.9-74.5l20.9,12.2v24.4l-20.9-12.2v-24.4h0ZM-214.8-75l-20.9,12.2-20.9-12.2,20.9-12.2,20.9,12.2ZM-214.6-50.2l-20.9,12.2v-24.4l20.9-12.2v24.4h0ZM-193.4-37.5l-20.9,12.2-20.9-12.2,20.9-12.2,20.9,12.2ZM-214-74.5l20.9,12.2v24.4l-20.9-12.2v-24.4h0ZM-172-75l-20.9,12.2-20.9-12.2,20.9-12.2,20.9,12.2h0ZM-171.7-50.2l-20.9,12.2v-24.4l20.9-12.2v24.4h0ZM-150.5-37.5l-20.9,12.2-20.9-12.2,20.9-12.2,20.9,12.2ZM-171.2-74.5l20.9,12.2v24.4l-20.9-12.2v-24.4ZM-129.1-75l-20.9,12.2-20.9-12.2,20.9-12.2,20.9,12.2h0ZM-128.8-50.2l-20.9,12.2v-24.4l20.9-12.2v24.4ZM-107.7-37.5l-20.9,12.2-20.9-12.2,20.9-12.2,20.9,12.2ZM-128.3-74.5l20.9,12.2v24.4l-20.9-12.2v-24.4h0ZM-86.3-75l-20.9,12.2-20.9-12.2,20.9-12.2,20.9,12.2ZM-86-50.2l-20.9,12.2v-24.4l20.9-12.2v24.4ZM-64.8-37.5l-20.9,12.2-20.9-12.2,20.9-12.2,20.9,12.2ZM-85.5-74.5l20.9,12.2v24.4l-20.9-12.2v-24.4h0ZM-43.4-75l-20.9,12.2-20.9-12.2,20.9-12.2,20.9,12.2ZM-43.1-50.2l-20.9,12.2v-24.4l20.9-12.2v24.4h0ZM-22-37.5l-20.9,12.2-20.9-12.2,20.9-12.2,20.9,12.2ZM-42.6-74.5l20.9,12.2v24.4l-20.9-12.2v-24.4ZM-.5-75l-20.9,12.2-20.9-12.2,20.9-12.2L-.5-75h0ZM-.3-50.2l-20.9,12.2v-24.4L-.3-74.5v24.4ZM20.9-37.5L0-25.3l-20.9-12.2L0-49.7l20.9,12.2ZM.3-74.5l20.9,12.2v24.4L.3-50.1v-24.4ZM42.3-75l-20.9,12.2L.5-75l20.9-12.2s20.9,12.2,20.9,12.2ZM42.6-50.2l-20.9,12.2v-24.4l20.9-12.2v24.4ZM63.7-37.5l-20.9,12.2-20.9-12.2,20.9-12.2,20.9,12.2ZM43.1-74.5l20.9,12.2v24.4l-20.9-12.2v-24.4ZM85.2-75l-20.9,12.2-20.9-12.2,20.9-12.2s20.9,12.2,20.9,12.2ZM64.5-38v-24.4l20.9-12.2v24.4l-20.9,12.2ZM85.4-.5l-20.9-12.2v-24.4l20.9,12.2V-.5ZM64.5,37V12.7L85.4.5v24.4l-20.9,12.2ZM85.4,74.5l-20.9-12.2v-24.4l20.9,12.2v24.4ZM64.5,112v-24.4l20.9-12.2v24.4l-20.9,12.2ZM85.4,149.5l-20.9-12.2v-24.4l20.9,12.2v24.4ZM64.5,187v-24.4l20.9-12.2v24.4l-20.9,12.2Z"/>
  </g>
</svg>